<svg width="12" height="12" viewBox="0 0 12 12" fill="none" xmlns="http://www.w3.org/2000/svg">
<path d="M3 9C3 9.275 3.225 9.5 3.5 9.5H4V11.25C4 11.665 4.335 12 4.75 12C5.165 12 5.5 11.665 5.5 11.25V9.5H6.5V11.25C6.5 11.665 6.835 12 7.25 12C7.665 12 8 11.665 8 11.25V9.5H8.5C8.775 9.5 9 9.275 9 9V4H3V9ZM1.75 4C1.335 4 1 4.335 1 4.75V8.25C1 8.665 1.335 9 1.75 9C2.165 9 2.5 8.665 2.5 8.25V4.75C2.5 4.335 2.165 4 1.75 4ZM10.25 4C9.835 4 9.5 4.335 9.5 4.75V8.25C9.5 8.665 9.835 9 10.25 9C10.665 9 11 8.665 11 8.25V4.75C11 4.335 10.665 4 10.25 4ZM7.765 1.08L8.415 0.43C8.515 0.33 8.515 0.175 8.415 0.075C8.315 -0.025 8.16 -0.025 8.06 0.075L7.32 0.815C6.91084 0.607794 6.45863 0.49988 6 0.5C5.52 0.5 5.07 0.615 4.67 0.815L3.925 0.075C3.825 -0.025 3.67 -0.025 3.57 0.075C3.47 0.175 3.47 0.33 3.57 0.43L4.225 1.085C3.84528 1.36284 3.53645 1.72634 3.3236 2.14596C3.11075 2.56557 2.99988 3.02948 3 3.5H9C9 2.505 8.515 1.625 7.765 1.08ZM5 2.5H4.5V2H5V2.5ZM7.5 2.5H7V2H7.5V2.5Z" fill="black"/>
</svg>
